# File created by Blade
# Date/Time:  Mon Sep 22 17:23:16 2014
# Frame Rate: 120.000 fps
#------------------------------------------------------
:FULLY-SPECIFIED
:DEGREES
1624
root 4.925878 37.227366 0.052170 -23.544654 -2.583104 -6.393799
RightUpLeg -62.982121 -29.974967 -15.178841
RightLeg 118.177259 -0.000000 -0.000000
RightFoot 13.841337 -13.173152 11.495215
RightToeBase -0.269480 -0.000000 0.000000
LeftUpLeg 23.340022 2.967885 -1.911682
LeftLeg 14.811212 -0.000000 -0.000000
LeftFoot -19.270503 19.263736 -13.080359
LeftToeBase -0.606775 -0.000000 0.000000
Spine 31.764101 -2.258228 -10.458669
RightShoulder 6.869026 -26.340621 -10.124944
RightArm 36.052020 -32.922671 49.707845
RightForeArm -172.988704 -0.000000 104.430176
RightHand 100.085309 -0.000000 -169.614028
RightHandThumb1 -24.326973 -0.000000 -32.862282
LeftShoulder -12.976939 25.143010 10.029820
LeftArm 83.671292 -14.479923 -57.713191
LeftForeArm 59.737566 0.000000 75.834017
LeftHand -24.268029 -0.000000 -20.308032
LeftHandThumb1 -26.253704 0.000000 33.147579
Head 1.603206 5.640507 16.024832
1625
root 4.914233 37.234112 0.043889 -23.843739 -2.563679 -6.622370
RightUpLeg -63.199122 -30.106073 -14.988651
RightLeg 115.950167 -0.000000 -0.000000
RightFoot 13.936581 -13.881961 11.707089
RightToeBase -0.572891 -0.000000 0.000000
LeftUpLeg 23.498433 2.819560 -1.727426
LeftLeg 15.077734 -0.000000 -0.000000
LeftFoot -19.355863 19.421141 -12.967613
LeftToeBase -0.664695 -0.000000 0.000000
Spine 32.243567 -2.397955 -10.308577
RightShoulder 6.941674 -26.310086 -10.133223
RightArm 36.112325 -32.847851 49.652047
RightForeArm -172.809541 -0.000000 104.383014
RightHand 100.096258 -0.000000 -169.558008
RightHandThumb1 -24.326973 -0.000000 -32.862282
LeftShoulder -12.939514 25.104290 10.149567
LeftArm 83.707879 -14.532681 -57.847186
LeftForeArm 59.753869 -0.000000 75.837773
LeftHand -24.318295 -0.000000 -20.272588
LeftHandThumb1 -26.253704 0.000000 33.147579
Head 1.594320 5.657682 16.138890
1626
root 4.906846 37.242682 0.032108 -24.139337 -2.544282 -6.864826
RightUpLeg -63.318695 -30.238796 -14.858542
RightLeg 113.402100 -0.000000 -0.000000
RightFoot 14.031746 -14.572536 11.959097
RightToeBase -0.875506 -0.000000 0.000000
LeftUpLeg 23.660208 2.682721 -1.522042
LeftLeg 15.320768 -0.000000 -0.000000
LeftFoot -19.411439 19.535540 -12.884384
LeftToeBase -0.768244 -0.000000 0.000000
Spine 32.727796 -2.530716 -10.104073
RightShoulder 6.992948 -26.258608 -10.154857
RightArm 36.126126 -32.773378 49.640850
RightForeArm -172.645398 0.000000 104.352249
RightHand 100.145756 0.000000 -169.598239
RightHandThumb1 -24.326973 -0.000000 -32.862282
LeftShoulder -12.843498 25.071259 10.267472
LeftArm 83.743174 -14.594007 -58.015579
LeftForeArm 59.757276 -0.000000 75.861648
LeftHand -24.318465 -0.000000 -20.281385
LeftHandThumb1 -26.253704 0.000000 33.147579
Head 1.564566 5.723624 16.236737
1627
root 4.901839 37.253525 0.014511 -24.444609 -2.548832 -7.080021
RightUpLeg -63.349392 -30.313374 -14.781328
RightLeg 110.500991 -0.000000 -0.000000
RightFoot 14.205613 -15.361436 11.973419
RightToeBase -1.166885 -0.000000 0.000000
LeftUpLeg 23.847945 2.611307 -1.309471
LeftLeg 15.513819 -0.000000 -0.000000
LeftFoot -19.447789 19.575084 -12.830168
LeftToeBase -0.775810 -0.000000 0.000000
Spine 33.240071 -2.608444 -9.918812
RightShoulder 7.045517 -26.136244 -10.155899
RightArm 36.093812 -32.783708 49.625547
RightForeArm -172.841325 -0.000000 104.354263
RightHand 100.090498 -0.000000 -169.657427
RightHandThumb1 -24.326973 -0.000000 -32.862282
LeftShoulder -12.731242 25.010779 10.426129
LeftArm 83.770104 -14.646703 -58.205058
LeftForeArm 59.802090 0.000000 75.881936
LeftHand -24.231540 -0.000000 -20.309589
LeftHandThumb1 -26.253704 0.000000 33.147579
Head 1.482644 5.689238 16.300115
1628
root 4.904686 37.263399 -0.005569 -24.719384 -2.514096 -7.267073
RightUpLeg -63.289562 -30.455173 -14.811298
RightLeg 107.226618 -0.000000 -0.000000
RightFoot 14.480403 -16.264962 12.073879
RightToeBase -1.417538 -0.000000 0.000000
LeftUpLeg 24.028219 2.527616 -1.151087
LeftLeg 15.634740 -0.000000 -0.000000
LeftFoot -19.445183 19.646595 -12.757265
LeftToeBase -0.744982 -0.000000 0.000000
Spine 33.726736 -2.738921 -9.769010
RightShoulder 7.085379 -26.039824 -10.180607
RightArm 36.102348 -32.769239 49.611635
RightForeArm -172.943466 -0.000000 104.343395
RightHand 100.071637 -0.000000 -169.518848
RightHandThumb1 -24.326973 -0.000000 -32.862282
LeftShoulder -12.641584 24.954704 10.550944
LeftArm 83.793957 -14.698890 -58.386287
LeftForeArm 59.816570 -0.000000 75.915535
LeftHand -24.255041 0.000000 -20.340453
LeftHandThumb1 -26.253704 0.000000 33.147579
Head 1.389526 5.681981 16.346193
1629
root 4.910858 37.273689 -0.025636 -24.979635 -2.467841 -7.429085
RightUpLeg -63.099873 -30.628714 -14.923408
RightLeg 103.572066 -0.000000 -0.000000
RightFoot 14.724679 -17.242856 12.317945
RightToeBase -1.194158 -0.000000 0.000000
LeftUpLeg 24.232098 2.500074 -0.988114
LeftLeg 15.675997 -0.000000 -0.000000
LeftFoot -19.419864 19.635237 -12.713523
LeftToeBase -0.787587 -0.000000 0.000000
Spine 34.188933 -2.891350 -9.664465
RightShoulder 7.131095 -25.979444 -10.209493
RightArm 36.116446 -32.684920 49.645154
RightForeArm -172.703913 0.000000 104.306058
RightHand 100.092360 -0.000000 -169.585313
RightHandThumb1 -24.326973 -0.000000 -32.862282
LeftShoulder -12.580246 24.903208 10.670738
LeftArm 83.806771 -14.737397 -58.554339
LeftForeArm 59.815090 0.000000 75.949562
LeftHand -24.323668 -0.000000 -20.338268
LeftHandThumb1 -26.253704 0.000000 33.147579
Head 1.317860 5.681370 16.403505
1630
root 4.931850 37.288115 -0.050538 -25.275024 -2.382382 -7.595800
RightUpLeg -62.677340 -30.832699 -15.149380
RightLeg 99.470050 -0.000000 -0.000000
RightFoot 15.075556 -18.220852 12.431035
RightToeBase -1.700751 -0.000000 0.000000
LeftUpLeg 24.503214 2.455714 -0.843768
LeftLeg 15.627247 -0.000000 -0.000000
LeftFoot -19.320573 19.627201 -12.644128
LeftToeBase -0.762598 -0.000000 0.000000
Spine 34.733102 -3.087021 -9.529331
RightShoulder 7.177222 -25.878654 -10.275853
RightArm 36.132769 -32.657103 49.633563
RightForeArm -172.873815 -0.000000 104.293356
RightHand 100.054482 -0.000000 -169.685097
RightHandThumb1 -24.326973 -0.000000 -32.862282
LeftShoulder -12.506842 24.837677 10.738566
LeftArm 83.859277 -14.781587 -58.738998
LeftForeArm 59.870261 -0.000000 75.950643
LeftHand -24.357334 -0.000000 -20.282760
LeftHandThumb1 -26.253704 0.000000 33.147579
Head 1.187781 5.696985 16.397681
1631
root 4.947739 37.303481 -0.078752 -25.526927 -2.344588 -7.689160
RightUpLeg -62.147094 -30.889030 -15.471368
RightLeg 94.996989 -0.000000 -0.000000
RightFoot 15.257753 -19.092540 12.800142
RightToeBase -1.618366 -0.000000 0.000000
LeftUpLeg 24.783537 2.573984 -0.674007
LeftLeg 15.467354 -0.000000 -0.000000
LeftFoot -19.157426 19.489524 -12.573601
LeftToeBase -0.731218 -0.000000 0.000000
Spine 35.199595 -3.206145 -9.495442
RightShoulder 7.227930 -25.861021 -10.306959
RightArm 36.260117 -32.622547 49.561989
RightForeArm -173.151206 0.000000 104.257523
RightHand 100.004782 -0.000000 -169.581882
RightHandThumb1 -24.326973 -0.000000 -32.862282
LeftShoulder -12.460723 24.811175 10.848588
LeftArm 83.914584 -14.822551 -58.935464
LeftForeArm 59.896095 0.000000 75.968189
LeftHand -24.375406 0.000000 -20.295774
LeftHandThumb1 -26.253704 0.000000 33.147579
Head 1.086227 5.693205 16.470754
1632
root 4.972403 37.319753 -0.110340 -25.724684 -2.249395 -7.775052
RightUpLeg -61.452584 -30.987034 -15.876274
RightLeg 90.114476 -0.000000 -0.000000
RightFoot 15.376446 -19.797664 13.053504
RightToeBase -1.422350 -0.000000 0.000000
LeftUpLeg 25.035784 2.713251 -0.501518
LeftLeg 15.234646 -0.000000 -0.000000
LeftFoot -18.893209 19.263552 -12.434268
LeftToeBase -0.749023 -0.000000 0.000000
Spine 35.616220 -3.375119 -9.469634
RightShoulder 7.282739 -25.820380 -10.312578
RightArm 36.205552 -32.473847 49.657234
RightForeArm -172.763014 -0.000000 104.222542
RightHand 100.084374 -0.000000 -169.705693
RightHandThumb1 -24.326973 -0.000000 -32.862282
LeftShoulder -12.400963 24.763530 10.928854
LeftArm 83.947138 -14.853963 -59.097890
LeftForeArm 59.944460 -0.000000 75.992552
LeftHand -24.367387 -0.000000 -20.317337
LeftHandThumb1 -26.253704 0.000000 33.147579
Head 0.976466 5.700249 16.521158
1633
root 5.000569 37.330829 -0.148616 -25.786521 -2.161535 -7.778990
RightUpLeg -60.745721 -31.049063 -16.334044
RightLeg 84.875473 -0.000000 -0.000000
RightFoot 15.405695 -20.291911 13.242244
RightToeBase -1.440209 -0.000000 0.000000
LeftUpLeg 25.166178 2.959501 -0.359215
LeftLeg 14.953439 -0.000000 -0.000000
LeftFoot -18.736372 18.921496 -12.440366
LeftToeBase -0.413324 -0.000000 0.000000
Spine 35.845188 -3.483653 -9.507902
RightShoulder 7.311159 -25.721879 -10.253135
RightArm 36.075547 -32.463332 49.740609
RightForeArm -172.686598 -0.000000 104.201597
RightHand 100.112042 -0.000000 -169.667418
RightHandThumb1 -24.326973 -0.000000 -32.862282
LeftShoulder -12.340682 24.752394 11.020143
LeftArm 84.006938 -14.852343 -59.255134
LeftForeArm 59.896700 -0.000000 75.968720
LeftHand -24.418754 0.000000 -20.084752
LeftHandThumb1 -26.253704 0.000000 33.147579
Head 0.899485 5.676508 16.612774
1634
root 5.189347 37.300856 -0.209548 -25.735671 -1.013122 -7.808944
RightUpLeg -59.548051 -32.483745 -17.604300
RightLeg 79.049750 -0.000000 -0.000000
RightFoot 15.922791 -20.372307 13.210615
RightToeBase -1.534381 -0.000000 0.000000
LeftUpLeg 24.954815 1.668860 -1.374509
LeftLeg 14.851829 -0.000000 -0.000000
LeftFoot -18.843526 19.588118 -12.409945
LeftToeBase -0.028830 -0.000000 0.000000
Spine 36.196195 -4.834989 -9.587485
RightShoulder 7.309140 -25.609581 -10.700937
RightArm 36.064784 -32.431554 49.711419
RightForeArm -173.061873 -0.000000 104.209800
RightHand 100.086102 -0.000000 -169.602626
RightHandThumb1 -24.326973 -0.000000 -32.862282
LeftShoulder -12.232996 24.614768 10.742680
LeftArm 84.023168 -14.768012 -59.492305
LeftForeArm 60.087289 -0.000000 76.035351
LeftHand -24.445945 -0.000000 -20.282407
LeftHandThumb1 -26.253704 0.000000 33.147579
Head 0.710786 5.668609 15.939248
